<?xml version="1.0" standalone="no"?>
<!DOCTYPE svg PUBLIC "-//W3C//DTD SVG 20010904//EN"
 "http://www.w3.org/TR/2001/REC-SVG-20010904/DTD/svg10.dtd">
<svg version="1.0" xmlns="http://www.w3.org/2000/svg"
 width="64.000000pt" height="64.000000pt" viewBox="0 0 64.000000 64.000000"
 preserveAspectRatio="xMidYMid meet">

<g transform="translate(0.000000,64.000000) scale(0.100000,-0.100000)"
fill="#000000" stroke="none">
<path d="M27 596 c-7 -16 14 -28 31 -17 12 7 3 25 -15 28 -6 1 -13 -4 -16 -11z"/>
<path d="M545 579 c6 -29 10 -32 24 -15 10 12 8 17 -8 25 -17 10 -19 8 -16
-10z"/>
<path d="M237 516 c-109 -30 -179 -147 -150 -255 6 -22 9 -23 59 -17 74 9 212
61 284 107 33 21 60 42 60 47 0 5 -16 27 -36 50 -56 66 -134 90 -217 68z"/>
<path d="M497 484 c-28 -15 -28 -16 -11 -35 9 -10 23 -19 31 -19 23 0 14 -22
-25 -59 -76 -72 -293 -155 -390 -149 l-47 3 3 39 c3 39 3 39 -20 24 -54 -36
-45 -113 17 -142 64 -31 197 -12 332 47 160 69 240 138 250 216 5 33 1 44 -20
65 -30 30 -76 34 -120 10z"/>
<path d="M430 189 c-61 -32 -174 -69 -211 -69 -36 0 -8 -21 41 -30 50 -9 113
4 152 31 29 21 84 87 77 93 -2 2 -29 -9 -59 -25z"/>
<path d="M516 116 c4 -17 1 -27 -13 -35 -17 -10 -17 -10 3 -11 12 0 25 -10 31
-22 l10 -23 7 23 c4 13 15 22 27 22 10 0 19 5 19 10 0 6 -4 10 -10 10 -5 0
-10 12 -10 26 0 22 -3 24 -14 15 -11 -9 -20 -10 -36 -1 -19 10 -20 9 -14 -14z"/>
</g>
</svg>
